REM DIRINDEX 1\5,1\2\6,1\2\7,1\3\8,1\3\9,1\3\10,1\3\11,1\4\12,1\4\13,1\4\14
REM DIRNAME folder01,folder02,folder03,folder04,folder05,folder06,folder07,folder08,folder09,folder10,folder11,folder12,folder13,folder14
TITLE ""
FILE "4Q_j_644-652.mp3" MP3
  TRACK 01 AUDIO
    TITLE "5:cjc042_0829"
    INDEX 01 00:00:00
  TRACK 02 AUDIO
    TITLE "0:"
    INDEX 01 00:03:43
  TRACK 03 AUDIO
    TITLE "8:cjc042_0830"
    INDEX 01 00:04:15
  TRACK 04 AUDIO
    TITLE "0:"
    INDEX 01 00:05:71
  TRACK 05 AUDIO
    TITLE "9:cjc042_0831"
    INDEX 01 00:06:45
  TRACK 06 AUDIO
    TITLE "0:"
    INDEX 01 00:09:49
  TRACK 07 AUDIO
    TITLE "10:cjc042_0832"
    INDEX 01 00:10:25
  TRACK 08 AUDIO
    TITLE "0:"
    INDEX 01 00:13:24
  TRACK 09 AUDIO
    TITLE "11:cjc042_0833"
    INDEX 01 00:14:06
  TRACK 10 AUDIO
    TITLE "0:"
    INDEX 01 00:16:61
  TRACK 11 AUDIO
    TITLE "8:cjc042_0834"
    INDEX 01 00:17:41
  TRACK 12 AUDIO
    TITLE "0:"
    INDEX 01 00:19:03
  TRACK 13 AUDIO
    TITLE "9:cjc042_0835"
    INDEX 01 00:19:54
  TRACK 14 AUDIO
    TITLE "0:"
    INDEX 01 00:21:49
  TRACK 15 AUDIO
    TITLE "10:cjc042_0836"
    INDEX 01 00:22:27
  TRACK 16 AUDIO
    TITLE "0:"
    INDEX 01 00:25:37
  TRACK 17 AUDIO
    TITLE "11:cjc042_0837"
    INDEX 01 00:26:15
  TRACK 18 AUDIO
    TITLE "0:"
    INDEX 01 00:29:48
  TRACK 19 AUDIO
    TITLE "8:cjc042_0838"
    INDEX 01 00:30:24
  TRACK 20 AUDIO
    TITLE "0:"
    INDEX 01 00:31:67
  TRACK 21 AUDIO
    TITLE "9:cjc042_0839"
    INDEX 01 00:32:41
  TRACK 22 AUDIO
    TITLE "0:"
    INDEX 01 00:35:63
  TRACK 23 AUDIO
    TITLE "10:cjc042_0840"
    INDEX 01 00:36:35
  TRACK 24 AUDIO
    TITLE "0:"
    INDEX 01 00:40:64
  TRACK 25 AUDIO
    TITLE "11:cjc042_0841"
    INDEX 01 00:41:38
  TRACK 26 AUDIO
    TITLE "0:"
    INDEX 01 00:45:45
  TRACK 27 AUDIO
    TITLE "8:cjc042_0842"
    INDEX 01 00:46:27
  TRACK 28 AUDIO
    TITLE "0:"
    INDEX 01 00:48:02
  TRACK 29 AUDIO
    TITLE "9:cjc042_0843"
    INDEX 01 00:48:59
  TRACK 30 AUDIO
    TITLE "0:"
    INDEX 01 00:51:13
  TRACK 31 AUDIO
    TITLE "10:cjc042_0844"
    INDEX 01 00:51:62
  TRACK 32 AUDIO
    TITLE "0:"
    INDEX 01 00:55:53
  TRACK 33 AUDIO
    TITLE "11:cjc042_0845"
    INDEX 01 00:56:29
  TRACK 34 AUDIO
    TITLE "0:"
    INDEX 01 01:00:37
  TRACK 35 AUDIO
    TITLE "8:cjc042_0846"
    INDEX 01 01:01:17
  TRACK 36 AUDIO
    TITLE "0:"
    INDEX 01 01:02:73
  TRACK 37 AUDIO
    TITLE "9:cjc042_0847"
    INDEX 01 01:03:53
  TRACK 38 AUDIO
    TITLE "0:"
    INDEX 01 01:06:12
  TRACK 39 AUDIO
    TITLE "10:cjc042_0848"
    INDEX 01 01:06:63
  TRACK 40 AUDIO
    TITLE "0:"
    INDEX 01 01:09:46
  TRACK 41 AUDIO
    TITLE "11:cjc042_0849"
    INDEX 01 01:10:24
  TRACK 42 AUDIO
    TITLE "0:"
    INDEX 01 01:13:63
  TRACK 43 AUDIO
    TITLE "8:cjc042_0850"
    INDEX 01 01:14:37
  TRACK 44 AUDIO
    TITLE "0:"
    INDEX 01 01:16:28
  TRACK 45 AUDIO
    TITLE "9:cjc042_0851"
    INDEX 01 01:17:12
  TRACK 46 AUDIO
    TITLE "0:"
    INDEX 01 01:18:62
  TRACK 47 AUDIO
    TITLE "10:cjc042_0852"
    INDEX 01 01:19:40
  TRACK 48 AUDIO
    TITLE "0:"
    INDEX 01 01:22:05
  TRACK 49 AUDIO
    TITLE "11:cjc042_0853"
    INDEX 01 01:22:54
  TRACK 50 AUDIO
    TITLE "0:"
    INDEX 01 01:25:31
  TRACK 51 AUDIO
    TITLE "8:cjc042_0854"
    INDEX 01 01:26:13
  TRACK 52 AUDIO
    TITLE "0:"
    INDEX 01 01:28:06
  TRACK 53 AUDIO
    TITLE "9:cjc042_0855"
    INDEX 01 01:28:59
  TRACK 54 AUDIO
    TITLE "0:"
    INDEX 01 01:32:64
  TRACK 55 AUDIO
    TITLE "10:cjc042_0856"
    INDEX 01 01:33:40
  TRACK 56 AUDIO
    TITLE "0:"
    INDEX 01 01:35:57
  TRACK 57 AUDIO
    TITLE "11:cjc042_0857"
    INDEX 01 01:36:39
  TRACK 58 AUDIO
    TITLE "0:"
    INDEX 01 01:39:31
  TRACK 59 AUDIO
    TITLE "8:cjc042_0858"
    INDEX 01 01:40:07
  TRACK 60 AUDIO
    TITLE "0:"
    INDEX 01 01:42:06
  TRACK 61 AUDIO
    TITLE "9:cjc042_0859"
    INDEX 01 01:42:63
  TRACK 62 AUDIO
    TITLE "0:"
    INDEX 01 01:46:57
  TRACK 63 AUDIO
    TITLE "10:cjc042_0860"
    INDEX 01 01:47:33
  TRACK 64 AUDIO
    TITLE "0:"
    INDEX 01 01:49:73
  TRACK 65 AUDIO
    TITLE "11:cjc042_0861"
    INDEX 01 01:50:53
  TRACK 66 AUDIO
    TITLE "0:"
    INDEX 01 01:53:16
  TRACK 67 AUDIO
    TITLE "8:cjc042_0862"
    INDEX 01 01:53:65
  TRACK 68 AUDIO
    TITLE "0:"
    INDEX 01 01:55:40
  TRACK 69 AUDIO
    TITLE "9:cjc042_0863"
    INDEX 01 01:56:18
  TRACK 70 AUDIO
    TITLE "0:"
    INDEX 01 01:58:15
  TRACK 71 AUDIO
    TITLE "10:cjc042_0864"
    INDEX 01 01:58:66
  TRACK 72 AUDIO
    TITLE "0:"
    INDEX 01 02:03:38
  TRACK 73 AUDIO
    TITLE "11:cjc042_0865"
    INDEX 01 02:04:15
  TRACK 74 AUDIO
    TITLE "0:"
    INDEX 01 02:10:06
